<svg width="143" height="143" viewBox="0 0 143 143" fill="none" xmlns="http://www.w3.org/2000/svg">
<circle cx="71.5" cy="71.5" r="68.5" fill="#ABD1C6" fill-opacity="0.78" stroke="#3A554D" stroke-width="6"/>
<path d="M64.5084 74.8882C62.4814 72.9386 61.4678 70.5722 61.4678 67.7889C61.4678 65.0056 62.4814 62.6404 64.5084 60.6933C66.5355 58.7463 68.9947 57.7715 71.8861 57.769C74.7775 57.7665 77.238 58.7413 79.2676 60.6933C81.2972 62.6454 82.3095 65.0106 82.3043 67.7889C82.2992 70.5673 81.2869 72.9337 79.2676 74.8882C77.2483 76.8427 74.7878 77.8162 71.8861 77.8088C68.9844 77.8014 66.5252 76.8279 64.5084 74.8882ZM71.8861 95.622C62.4968 95.622 53.9436 93.1021 46.2263 88.0625C38.5091 83.0229 32.9142 76.265 29.4414 67.7889C32.9142 59.3153 38.5091 52.5587 46.2263 47.519C53.9436 42.4794 62.4968 39.9583 71.8861 39.9559C80.9538 39.9559 89.2344 42.3062 96.7278 47.0069C104.221 51.7076 109.832 58.0164 113.559 65.9334H104.781C101.437 60.1812 96.8384 55.6512 90.9862 52.3434C85.134 49.0356 78.7673 47.3805 71.8861 47.378C64.619 47.378 57.9475 49.2187 51.8715 52.9001C45.7955 56.5815 41.1484 61.5444 37.9303 67.7889C41.1459 74.0359 45.7929 79.0001 51.8715 82.6814C57.9501 86.3628 64.6216 88.2023 71.8861 88.1998C73.1723 88.1998 74.4585 88.138 75.7447 88.0143C77.0309 87.8906 78.3171 87.705 79.6033 87.4576V94.9725C78.3171 95.1581 77.0309 95.3127 75.7447 95.4364C74.4585 95.5601 73.1723 95.622 71.8861 95.622ZM71.8861 84.4887C73.3009 84.4887 74.6681 84.3341 75.9878 84.0249C77.3074 83.7156 78.5448 83.2826 79.6998 82.726C80.0213 79.6334 81.0348 76.8501 82.7404 74.3761C84.4459 71.902 86.6157 69.9228 89.2498 68.4384V67.7889C89.2498 63.1501 87.5623 59.2077 84.1873 55.9617C80.8123 52.7158 76.7119 51.0916 71.8861 51.0891C67.0603 51.0866 62.9611 52.7108 59.5887 55.9617C56.2163 59.2126 54.5275 63.155 54.5224 67.7889C54.5172 72.4228 56.206 76.3664 59.5887 79.6198C62.9714 82.8732 67.0705 84.4962 71.8861 84.4887ZM87.3205 103.044V84.4887H91.1791V80.7777C91.1791 78.7366 91.9354 76.9899 93.448 75.5376C94.9606 74.0854 96.7767 73.358 98.8963 73.3555C101.016 73.3531 102.833 74.0804 104.349 75.5376C105.864 76.9949 106.619 78.7415 106.614 80.7777V84.4887H110.472V103.044H87.3205ZM95.0377 84.4887H102.755V80.7777C102.755 79.7262 102.385 78.8454 101.644 78.1354C100.903 77.4253 99.987 77.0691 98.8963 77.0666C97.8056 77.0641 96.8899 77.4204 96.149 78.1354C95.4082 78.8504 95.0377 79.7311 95.0377 80.7777V84.4887Z" fill="#3A554D"/>
</svg>
